<svg xmlns="http://www.w3.org/2000/svg" id="Layer_1" data-name="Layer 1" viewBox="0 0 384.2 82"><defs><style>      .cls-1 {        fill: #fff;      }    </style></defs><path class="cls-1" d="M67.9,5.2v1.9h-7.8l-23.4,73.9h-6.3L7.7,7.1H1v-1.9h31.7v1.9h-9.1l16.5,57.4L58.2,7.1h-10.4v-1.9h20.2Z"></path><path class="cls-1" d="M71.7,79.6v-1.9h8V7.1h-8v-1.9h29.6v1.9h-7.9v70.5h8.6c3.2,0,6-.5,8.3-1.4,2.3-.9,4.2-2.3,5.7-4.1,1.5-1.8,2.7-3.9,3.5-6.4.8-2.5,1.4-5.3,1.7-8.5h1.8v22.3h-51.3Z"></path><path class="cls-1" d="M159.6,80.6c-4.7,0-8.9-1-12.6-2.9-3.7-1.9-6.8-4.6-9.4-8.1-2.6-3.5-4.6-7.5-5.9-12.2-1.4-4.6-2-9.7-2-15.1s.7-10.4,2.2-15.1c1.4-4.6,3.5-8.7,6.1-12.2,2.6-3.5,5.8-6.2,9.5-8.1,3.7-1.9,7.8-2.9,12.2-2.9s8.5,1,12.2,2.9c3.7,1.9,6.8,4.6,9.5,8.1,2.6,3.5,4.7,7.5,6.1,12.2,1.4,4.6,2.1,9.7,2.1,15.1s-.7,10.4-2,15.1c-1.4,4.6-3.3,8.7-5.9,12.2-2.6,3.5-5.7,6.2-9.4,8.1-3.7,1.9-7.9,2.9-12.6,2.9ZM159.6,78.7c3.1,0,5.5-.9,7.4-2.8,1.9-1.8,3.4-4.4,4.4-7.7,1-3.3,1.7-7.2,2.1-11.6.4-4.4.6-9.2.6-14.3s-.2-9.9-.7-14.3c-.5-4.4-1.2-8.3-2.3-11.6-1.1-3.3-2.6-5.9-4.4-7.7-1.9-1.8-4.2-2.8-7-2.8s-5.2.9-7.1,2.8c-1.9,1.8-3.4,4.4-4.4,7.7-1.1,3.3-1.9,7.2-2.3,11.6-.5,4.4-.7,9.2-.7,14.3s.2,9.9.6,14.3c.4,4.4,1.1,8.3,2.1,11.6,1,3.3,2.5,5.9,4.4,7.7,1.9,1.8,4.4,2.8,7.5,2.8Z"></path><path class="cls-1" d="M221.6,81c-3.3,0-6.1-.6-8.6-1.8-2.5-1.2-4.6-2.8-6.4-4.8l-7.1,6.1h-1.6v-23.4h1.8c.8,2.7,1.8,5.4,3,8,1.2,2.6,2.7,4.9,4.4,7,1.7,2.1,3.7,3.7,6,5,2.3,1.2,4.9,1.9,8,1.9s5.2-.6,7.2-1.7c2-1.1,3.6-2.7,4.7-4.7,1.1-2,1.6-4.4,1.6-7.2s-.6-4.9-1.9-6.7c-1.3-1.8-3-3.4-5.1-4.7-2.1-1.3-4.4-2.5-6.9-3.7-2.5-1.2-5-2.4-7.6-3.8-2.5-1.4-4.8-3-6.9-4.9-2.1-1.9-3.8-4.3-5.1-7.1-1.3-2.8-1.9-6.3-1.9-10.4s.9-7.7,2.7-10.6c1.8-3,4.2-5.2,7.2-6.8,3-1.6,6.2-2.4,9.6-2.4s5,.5,7.3,1.4c2.2.9,4.3,2.3,6,4.1l7-5.6h1.5v22.4h-1.7c-1.2-4.2-2.7-7.8-4.5-10.8-1.8-3-3.9-5.4-6.4-7-2.5-1.6-5.3-2.5-8.5-2.5s-6.2,1-8.1,3c-1.9,2-2.8,4.6-2.8,7.8s.6,4.5,1.9,6.1c1.3,1.7,2.9,3.1,5,4.4,2.1,1.3,4.4,2.5,6.9,3.7,2.5,1.2,5,2.5,7.5,4,2.5,1.4,4.8,3.2,6.9,5.2,2.1,2,3.8,4.4,5,7.3,1.3,2.9,1.9,6.3,1.9,10.4s-1,8.6-2.9,12.1c-1.9,3.4-4.6,6-7.9,7.9-3.3,1.9-7,2.8-11.2,2.8Z"></path><path class="cls-1" d="M274,81c-3.3,0-6.1-.6-8.6-1.8-2.5-1.2-4.6-2.8-6.4-4.8l-7.1,6.1h-1.6v-23.4h1.8c.8,2.7,1.8,5.4,3,8,1.2,2.6,2.7,4.9,4.4,7,1.7,2.1,3.7,3.7,6,5,2.3,1.2,4.9,1.9,8,1.9s5.2-.6,7.2-1.7c2-1.1,3.6-2.7,4.7-4.7,1.1-2,1.6-4.4,1.6-7.2s-.6-4.9-1.9-6.7c-1.3-1.8-3-3.4-5.1-4.7-2.1-1.3-4.4-2.5-6.9-3.7-2.5-1.2-5-2.4-7.6-3.8-2.5-1.4-4.8-3-6.9-4.9-2.1-1.9-3.8-4.3-5.1-7.1-1.3-2.8-1.9-6.3-1.9-10.4s.9-7.7,2.7-10.6c1.8-3,4.2-5.2,7.2-6.8,3-1.6,6.2-2.4,9.6-2.4s5,.5,7.3,1.4c2.2.9,4.3,2.3,6,4.1l7-5.6h1.5v22.4h-1.7c-1.2-4.2-2.7-7.8-4.5-10.8-1.8-3-3.9-5.4-6.4-7-2.5-1.6-5.3-2.5-8.5-2.5s-6.2,1-8.1,3c-1.9,2-2.8,4.6-2.8,7.8s.6,4.5,1.9,6.1c1.3,1.7,2.9,3.1,5,4.4,2.1,1.3,4.4,2.5,6.9,3.7,2.5,1.2,5,2.5,7.5,4,2.5,1.4,4.8,3.2,6.9,5.2,2.1,2,3.8,4.4,5,7.3,1.3,2.9,1.9,6.3,1.9,10.4s-1,8.6-2.9,12.1c-1.9,3.4-4.6,6-7.9,7.9-3.3,1.9-7,2.8-11.2,2.8Z"></path><path class="cls-1" d="M313.4,12.1l-8.1-3.1c-1-.3-1.7-.8-2.2-1.5-.5-.7-.9-1.6-.9-2.5,0-.9.1-1.7.5-2.4.4-.6.9-1.1,1.7-1.4.8-.3,1.6-.3,2.4,0,.8.3,1.5.9,2.1,2l5.2,8-.6.9Z"></path><path class="cls-1" d="M337.7,79.6v-1.9h7.9v-33.8l-19.1-36.8h-6.5v-1.9h30.9v1.9h-8.5l16.1,32.4,15.5-32.4h-9.2v-1.9h18.2v1.9h-7l-16.8,34.9v35.7h8.9v1.9h-30.4Z"></path></svg>